# xmcd
#
# Track frame offsets: 
#        150
#        14399
#        18748
#        23771
#        25848
#        40225
#        59611
#        68907
#        83355
#        98011
#        112959
#
# Disc length: 1701 seconds
#
# Revision: 1
# Processed by: cddbd v1.5.2PL0 Copyright (c) Steve Scherf et al.
# Submitted via: ExactAudioCopy v0.99pb4
#
DISCID=7f06a30b
DTITLE=Sonny Boy Williamson - Bye Bye Sonny CD2 (With Jimmy Page and Bri
DTITLE=an Auger Trinity)
DYEAR=1965
DGENRE=Blues
TTITLE0=Don't Send Me No Flowers Pt1
TTITLE1=Don't Send Me No Flowers Pt2
TTITLE2=Don't Send Me No Flowers Pt3
TTITLE3=Don't Send Me No Flowers Pt4
TTITLE4=I See A Man Downstairs
TTITLE5=She Was So Dumb
TTITLE6=The Goat
TTITLE7=Walking
TTITLE8=Little Girl, How Old Are You
TTITLE9=It's A Bloody Life
TTITLE10=Getting Out Of Town
EXTD=
EXTT0=
EXTT1=
EXTT2=
EXTT3=
EXTT4=
EXTT5=
EXTT6=
EXTT7=
EXTT8=
EXTT9=
EXTT10=
PLAYORDER=
